<svg id="Capa_1" data-name="Capa 1" xmlns="http://www.w3.org/2000/svg" xmlns:xlink="http://www.w3.org/1999/xlink" viewBox="0 0 89.86 85.14"><defs><style>.cls-1{fill:url(#linear-gradient);}.cls-2{fill:#fff;}</style><linearGradient id="linear-gradient" x1="36.11" y1="-17.23" x2="51.05" y2="83.91" gradientUnits="userSpaceOnUse"><stop offset="0" stop-color="#23397c"/><stop offset="0.94" stop-color="#1a1f3c"/></linearGradient></defs><path class="cls-1" d="M80.72,42.53A35.7,35.7,0,0,1,48,78.17a16.45,16.45,0,0,1-3.05.19,34.6,34.6,0,0,1-7.75-.84,35.79,35.79,0,1,1,43.49-35Z"/><path class="cls-2" d="M49,35.05a4.19,4.19,0,0,1,3.24-1.12,18.94,18.94,0,0,1,4.89.67l1.39-7.5a26,26,0,0,0-8.86-1.31,14.44,14.44,0,0,0-7.39,1.59,8.35,8.35,0,0,0-4,4.07C37.59,33,37.23,35.69,37.23,39v3H31.3v8.59h5.93V77.52a34.6,34.6,0,0,0,7.75.84A16.45,16.45,0,0,0,48,78.17V50.57h7.85V42H48V39.19C48,37.07,48.31,35.79,49,35.05Z"/></svg>